<svg width="70" height="70" viewBox="0 0 70 70" fill="none" xmlns="http://www.w3.org/2000/svg">
<path fill-rule="evenodd" clip-rule="evenodd" d="M22.5437 13.5273C22.4252 13.5392 22.3085 13.5642 22.1957 13.6021C18.6524 14.6903 16.143 16.6148 14.7879 19.1207C13.4327 21.6265 13.2615 24.5637 13.8433 27.5476C15.0068 33.5154 19.1358 39.9296 24.3583 45.2716C29.5809 50.6136 35.8783 54.8894 41.8835 56.1347C44.8861 56.7573 47.8758 56.5927 50.4596 55.2398C53.0434 53.8869 55.099 51.364 56.3759 47.7574C56.4937 47.4193 56.494 47.0513 56.3767 46.713C56.2594 46.3746 56.0314 46.0857 55.7296 45.8931L44.3942 38.7836L44.3693 38.759C44.3135 38.7222 44.2553 38.689 44.1953 38.6595C44.0286 38.5515 43.8431 38.4756 43.6484 38.4358C43.6318 38.4355 43.6153 38.4355 43.5987 38.4358C43.5576 38.4259 43.5162 38.4177 43.4744 38.4111C43.4661 38.4111 43.4578 38.4111 43.4496 38.4111C43.1843 38.3957 42.9193 38.447 42.6789 38.5603C42.5917 38.6023 42.5085 38.6523 42.4304 38.7094C42.3788 38.7398 42.329 38.773 42.2812 38.8089C42.2639 38.8333 42.2474 38.8583 42.2315 38.8837C42.1691 38.9371 42.1109 38.9953 42.0575 39.0576L39.5716 41.5684C35.0646 39.2997 31.599 35.4962 28.4848 30.3573L30.7718 28.0951C30.8155 28.056 30.857 28.0145 30.8961 27.9709C30.9307 27.9392 30.9639 27.906 30.9955 27.8714C30.9956 27.8632 30.9956 27.855 30.9955 27.8468C31.0301 27.8151 31.0633 27.7819 31.0949 27.7473C31.095 27.7391 31.095 27.7309 31.0949 27.7227C31.1122 27.6982 31.1288 27.6733 31.1447 27.6479C31.1616 27.6318 31.1782 27.6154 31.1944 27.5986C31.2127 27.5579 31.2293 27.5164 31.2441 27.4743C31.2442 27.4661 31.2442 27.4578 31.2441 27.4496C31.2527 27.4333 31.261 27.4169 31.269 27.4003C31.2867 27.3677 31.3033 27.3346 31.3187 27.3009C31.3286 27.2598 31.3369 27.2184 31.3435 27.1766C31.3436 27.1684 31.3436 27.1602 31.3435 27.152C31.3542 27.1027 31.3625 27.0529 31.3684 27.0028C31.3685 26.9946 31.3685 26.9864 31.3684 26.9781C31.37 26.9367 31.37 26.8952 31.3684 26.8538C31.3685 26.8456 31.3685 26.8374 31.3684 26.8291C31.37 26.7877 31.37 26.7463 31.3684 26.7049C31.3686 26.6885 31.3686 26.672 31.3684 26.6556C31.3618 26.6138 31.3535 26.5723 31.3435 26.5312C31.3436 26.523 31.3436 26.5148 31.3435 26.5066C31.3188 26.4126 31.2855 26.3211 31.2441 26.2332C31.2442 26.2249 31.2442 26.2167 31.2441 26.2085C31.2156 26.14 31.1824 26.0735 31.1447 26.0096L31.1198 25.9603C31.1116 25.952 31.1033 25.9438 31.0949 25.9357L24.0103 14.302C23.8729 14.0734 23.6802 13.883 23.45 13.7483C23.2198 13.6136 22.9594 13.539 22.6928 13.5313C22.6431 13.529 22.5934 13.529 22.5437 13.5313V13.5273ZM21.9719 17.0323L27.7639 26.6028L25.3527 28.9892C25.1072 29.2369 24.9499 29.5584 24.905 29.9042C24.8601 30.2501 24.93 30.6011 25.1041 30.9033C28.7838 37.2755 33.1436 42.2328 39.2485 44.9234C39.541 45.0534 39.866 45.092 40.1809 45.0344C40.4957 44.9767 40.7859 44.8255 41.0134 44.6003L43.5738 42.0398L52.9206 47.8816C51.8856 50.2108 50.5364 51.5977 48.993 52.4059C47.2052 53.342 45.0216 53.5192 42.5298 53.0025C37.5461 51.969 31.5262 48.0521 26.6204 43.0342C21.7147 38.0162 17.9184 31.9146 16.9505 26.9509C16.4666 24.469 16.6804 22.3314 17.5969 20.6368C18.386 19.1777 19.7263 17.9285 21.9719 17.0323Z" fill="white"/>
<path fill-rule="evenodd" clip-rule="evenodd" d="M35.0003 0C15.6937 0 0 15.6856 0 35.0003C0 42.019 2.07986 48.5792 5.747 54.2071L1.83281 67.2692C1.74885 67.5496 1.74387 67.8477 1.81842 68.1308C1.89297 68.4138 2.04415 68.6708 2.25535 68.8734C2.46654 69.0761 2.72954 69.2166 3.01542 69.2794C3.3013 69.3422 3.59897 69.3249 3.87567 69.2295L16.6608 64.8171C21.9845 68.1029 28.2798 70.0007 35.0003 70.0007C54.3145 70.0007 70.0006 54.3145 70.0006 35.0003C70.0006 15.686 54.3145 0 35.0003 0ZM35.0003 3.18138C52.5958 3.18138 66.8193 17.4048 66.8193 35.0003C66.8193 52.5957 52.5958 66.8193 35.0003 66.8193C28.6219 66.8193 22.6896 64.9484 17.7295 61.73C17.5267 61.5985 17.2966 61.5148 17.0566 61.4854C16.8166 61.4561 16.5731 61.4819 16.3446 61.5608L5.77136 65.2097L9.00891 54.405C9.07687 54.1782 9.09335 53.9391 9.05714 53.7051C9.02093 53.4711 8.93295 53.2481 8.79961 53.0524C5.20518 47.7786 3.18138 41.6358 3.18138 35.0003C3.18138 17.4053 17.4132 3.18138 35.0003 3.18138Z" fill="white"/>
</svg>
