<svg width="52" height="52" viewBox="0 0 52 52" fill="none" xmlns="http://www.w3.org/2000/svg">
<path d="M26.0743 4.61336C32.9086 4.61336 33.7177 4.63788 36.415 4.76399C38.9091 4.87608 40.2647 5.29643 41.1685 5.64672C42.363 6.11261 43.2142 6.66607 44.1109 7.55932C45.0077 8.45607 45.5611 9.30728 46.0235 10.5018C46.3738 11.4055 46.7907 12.7577 46.9063 15.2553C47.0289 17.9525 47.0569 18.7617 47.0569 25.5959C47.0569 32.4301 47.0289 33.2393 46.9063 35.9366C46.7907 38.4306 46.3738 39.7863 46.0235 40.69C45.5576 41.8845 45.0042 42.7357 44.1109 43.6325C43.2142 44.5292 42.363 45.0827 41.1685 45.5451C40.2647 45.8954 38.9126 46.3122 36.415 46.4278C33.7177 46.5504 32.9086 46.575 26.0743 46.575C19.2401 46.575 18.4309 46.5504 15.7337 46.4278C13.2396 46.3157 11.884 45.8954 10.9802 45.5451C9.78572 45.0792 8.9345 44.5257 8.03775 43.6325C7.141 42.7357 6.58754 41.8845 6.12165 40.69C5.77136 39.7898 5.35451 38.4341 5.23891 35.9366C5.11631 33.2393 5.09179 32.4301 5.09179 25.5959C5.09179 18.7617 5.11631 17.9525 5.23891 15.2553C5.35451 12.7612 5.77136 11.4055 6.12165 10.5018C6.58754 9.30728 7.141 8.45607 8.03775 7.55932C8.9345 6.66257 9.78572 6.10911 10.9802 5.64672C11.8805 5.29643 13.2361 4.87958 15.7337 4.76399C18.4309 4.63788 19.2436 4.61336 26.0743 4.61336ZM26.0743 0C19.1245 0 18.2523 0.0315272 15.5235 0.15413C12.7982 0.276732 10.9382 0.711095 9.31282 1.34512C7.62791 2.00017 6.20222 2.8724 4.78003 4.29809C3.35784 5.72028 2.48211 7.14948 1.82706 8.83089C1.19303 10.4597 0.762169 12.3198 0.636063 15.0416C0.509958 17.7704 0.481934 18.6426 0.481934 25.5924C0.481934 32.5422 0.509958 33.4144 0.636063 36.1432C0.758666 38.8685 1.19303 40.7286 1.82706 42.3539C2.48211 44.0353 3.35434 45.4645 4.78003 46.8867C6.20222 48.3089 7.63141 49.1846 9.31282 49.8397C10.9417 50.4702 12.8017 50.9046 15.5235 51.0307C18.2523 51.1568 19.1245 51.1848 26.0743 51.1848C33.0242 51.1848 33.8964 51.1568 36.6252 51.0307C39.3504 50.9081 41.2105 50.4737 42.8359 49.8397C44.5208 49.1846 45.9465 48.3089 47.3686 46.8867C48.7908 45.4645 49.6666 44.0353 50.3216 42.3539C50.9556 40.7251 51.3865 38.865 51.5126 36.1432C51.6352 33.4144 51.6667 32.5422 51.6667 25.5924C51.6667 18.6426 51.6387 17.7704 51.5126 15.0416C51.3865 12.3163 50.9556 10.4562 50.3216 8.83089C49.6666 7.14948 48.7908 5.72028 47.3686 4.29809C45.9465 2.87591 44.5173 2.00017 42.8359 1.34512C41.207 0.714598 39.3469 0.280235 36.6252 0.15413C33.8964 0.0315272 33.0277 0 26.0743 0Z" fill="white"/>
<path d="M26.0744 12.4531C18.8163 12.4531 12.9314 18.338 12.9314 25.5961C12.9314 32.8542 18.8163 38.7391 26.0744 38.7391C33.3325 38.7391 39.2174 32.8542 39.2174 25.5961C39.2174 18.3345 33.3325 12.4531 26.0744 12.4531ZM26.0744 34.1257C21.363 34.1257 17.5448 30.3076 17.5448 25.5961C17.5448 20.8847 21.363 17.0665 26.0744 17.0665C30.7858 17.0665 34.604 20.8847 34.604 25.5961C34.6075 30.3041 30.7858 34.1257 26.0744 34.1257Z" fill="white"/>
<path d="M42.808 11.9305C42.808 13.6259 41.4313 15.0025 39.7359 15.0025C38.0405 15.0025 36.6638 13.6259 36.6638 11.9305C36.6638 10.235 38.0405 8.8584 39.7359 8.8584C41.4348 8.8619 42.808 10.235 42.808 11.9305Z" fill="white"/>
</svg>
