<svg width="46" height="47" viewBox="0 0 46 47" fill="none" xmlns="http://www.w3.org/2000/svg">
<path d="M22.9117 46.6847C14.996 46.4839 8.66289 43.2517 4.01949 36.782C3.38484 35.8983 3.41965 35.7644 4.32209 35.2262C6.65985 33.8337 9.00565 32.4573 11.3274 31.038C11.9245 30.6738 12.2619 30.7247 12.6877 31.3058C17.8506 38.3218 27.9354 38.3057 33.109 31.279C33.4678 30.7916 33.7838 30.631 34.3435 30.9737C36.708 32.4332 39.0779 33.8846 41.4719 35.2985C42.1575 35.7028 42.2914 36.059 41.8094 36.7445C38.2425 41.8137 33.4277 44.9655 27.3784 46.2536C25.9056 46.5669 24.4221 46.6713 22.9117 46.6847Z" fill="white"/>
<path d="M37.7096 6.22187C28.945 -1.31093 15.5664 -0.949423 7.2115 7.04933C1.93077 12.1051 -0.40164 18.3392 0.0562732 25.639C0.107152 26.4477 0.302636 26.7503 1.17562 26.7476C8.41118 26.7128 15.6494 26.7289 22.885 26.7289C30.1205 26.7289 37.3588 26.7128 44.5943 26.7503C45.4861 26.7556 45.7672 26.4584 45.8128 25.6283C46.2278 17.8545 43.6383 11.3178 37.7096 6.22187ZM12.9019 18.2642C12.3449 18.2642 12.3235 18.1303 12.5592 17.6831C14.6184 13.752 20.0224 11.1143 24.4622 11.8266C28.1362 12.4157 31.0149 14.1992 33.0501 17.3242C33.2188 17.584 33.4491 17.8277 33.4545 18.2561C26.5617 18.2561 19.7331 18.2508 12.9019 18.2642Z" fill="white"/>
</svg>
