<svg width="90" height="60" viewBox="0 0 90 60" fill="none" xmlns="http://www.w3.org/2000/svg">
<path d="M82 0H8C3.6 0 0 3.6 0 8V52C0 56.4 3.6 60 8 60H82C86.4 60 90 56.4 90 52V8C90 3.6 86.4 0 82 0ZM8 4H82C82.3 4 82.5 4 82.8 4.1L47.5 33.3C46 34.5 43.9 34.5 42.4 33.3L7.2 4.1C7.5 4 7.7 4 8 4ZM4 52V8C4 7.6 4.1 7.2 4.2 6.8L32.2 30L4.2 53.2C4.1 52.8 4 52.4 4 52ZM82 56H8C7.7 56 7.5 56 7.2 55.9L35.3 32.6L39.8 36.4C41.3 37.6 43.1 38.2 44.9 38.2C46.7 38.2 48.5 37.6 50 36.4L54.5 32.6L82.6 55.9C82.5 56 82.3 56 82 56ZM86 52C86 52.4 85.9 52.8 85.8 53.2L57.8 30L85.8 6.8C85.9 7.2 86 7.6 86 8V52Z" fill="white"/>
</svg>
